ATTACK ON LENINGRAD 2009 DVDRip XviD

The audio on this movie is English,Russian and German the english subtitles are hardcoded 

Format                           : AVI
Format/Info                      : Audio Video Interleave
File size                        : 689 MiB
Duration                         : 1h 46mn
Overall bit rate                 : 908 Kbps
Writing application              : MEncoder SVN-r29352(20090610-gcc4.3.3)
Writing library                  : MPlayer

Video
ID                               : 0
Format                           : MPEG-4 Visual
Format profile                   : AdvancedSimple@L5
Format settings, BVOP            : Yes
Format settings, QPel            : No
Format settings, GMC             : No warppoints
Format settings, Matrix          : Default (H.263)
Codec ID                         : XVID
Codec ID/Hint                    : XviD
Duration                         : 1h 46mn
Bit rate                         : 767 Kbps
Width                            : 640 pixels
Height                           : 360 pixels
Display aspect ratio             : 2.35:1
Frame rate                       : 25.000 fps
Resolution                       : 24 bits
Colorimetry                      : 4:2:0
Scan type                        : Progressive
Bits/(Pixel*Frame)               : 0.133
Stream size                      : 583 MiB (85%)
Writing library                  : XviD 1.2.1 (UTC 2008-12-04)

Audio
ID                               : 1
Format                           : MPEG Audio
Format version                   : Version 1
Format profile                   : Layer 3
Codec ID                         : 55
Codec ID/Hint                    : MP3
Duration                         : 1h 46mn
Bit rate mode                    : Constant
Bit rate                         : 128 Kbps
Channel(s)                       : 2 channels
Sampling rate                    : 44.1 KHz
Resolution                       : 16 bits
Video delay                      : 40ms
Stream size                      : 97.2 MiB (14%)
Alignment                        : Aligned on interleaves
Interleave, duration             : 26 ms (0.65 video frame)
Interleave, preload duration     : 522 ms 
http://www.imdb.com/title/tt0432314/

A soaring, action-packed journey of heroism and sacrifice as one crusading journalist desperately fights to uncover the horrors buried within the infamous Nazi siege of Leningrad in the savage winter of 1941. An epic story is inspired by true events, featuring an acclaimed, award-winning cast, this is the tale of the tragedy that befell Leningrad: at over 800 days, it was one of the longest and most destructive sieges in history. 

PLEASE SEED AND ENJOY THANKS

screens 
http://img411.imageshack.us/img411/2882/aolxvidviceavithumbs201.jpg

